<svg xmlns="http://www.w3.org/2000/svg" viewBox="0 0 2340.72 2340.72"><defs><style>.cls-1{fill:#e8473f;}</style></defs><title>Asset 3</title><g id="Layer_2" data-name="Layer 2"><g id="Layer_1-2" data-name="Layer 1"><path class="cls-1" d="M1170.36,166.3c135.62,0,267.09,26.52,390.77,78.83a1008.26,1008.26,0,0,1,534.45,534.45c52.31,123.68,78.84,255.16,78.84,390.78s-26.53,267.09-78.84,390.77a1008.26,1008.26,0,0,1-534.45,534.45c-123.68,52.31-255.15,78.84-390.77,78.84s-267.1-26.53-390.78-78.84a1008.26,1008.26,0,0,1-534.45-534.45C192.82,1437.45,166.3,1306,166.3,1170.36s26.52-267.1,78.83-390.78A1008.26,1008.26,0,0,1,779.58,245.13c123.68-52.31,255.16-78.83,390.78-78.83m0-166.3C524,0,0,524,0,1170.36S524,2340.72,1170.36,2340.72s1170.36-524,1170.36-1170.36S1816.73,0,1170.36,0"/><path class="cls-1" d="M1367.1,1169.46,1724.53,812a12.73,12.73,0,0,0,0-18L1545.77,615.24a12.75,12.75,0,0,0-18,0L1170.31,972.67,812.88,615.24a12.75,12.75,0,0,0-18,0L616.09,794a12.73,12.73,0,0,0,0,18l357.43,357.44L616.09,1526.89a12.75,12.75,0,0,0,0,18l178.76,178.75a12.75,12.75,0,0,0,18,0l357.43-357.43,357.43,357.43a12.75,12.75,0,0,0,18,0l178.76-178.75a12.75,12.75,0,0,0,0-18Z"/></g></g></svg>