<svg xmlns="http://www.w3.org/2000/svg" viewBox="0 0 2340.71 2340.72"><defs><style>.cls-1{fill:#84c731;}</style></defs><title>Asset 1</title><g id="Layer_2" data-name="Layer 2"><g id="Layer_1-2" data-name="Layer 1"><path class="cls-1" d="M1170.36,2340.72c-158,0-311.24-31-455.59-92A1174.26,1174.26,0,0,1,92,1625.94C31,1481.6,0,1328.32,0,1170.36S31,859.12,92,714.77A1174.19,1174.19,0,0,1,714.77,92C859.12,31,1012.4,0,1170.36,0s311.24,31,455.58,92a1174.26,1174.26,0,0,1,622.77,622.76c61.05,144.35,92,297.63,92,455.59s-30.95,311.24-92,455.58a1174.32,1174.32,0,0,1-622.77,622.77c-144.34,61.05-297.62,92-455.58,92m0-2171.22c-551.88,0-1000.86,449-1000.86,1000.86s449,1000.85,1000.86,1000.85,1000.85-449,1000.85-1000.85S1722.23,169.5,1170.36,169.5"/><path class="cls-1" d="M1719,683,996.93,1405.1a11.65,11.65,0,0,1-16.49,0L616,1040.69a11.67,11.67,0,0,0-16.49,0L423.17,1217.05a11.67,11.67,0,0,0,0,16.49l560.54,560.54a11.67,11.67,0,0,0,16.49,0l181.62-181.62,3-3,730.33-730.34a11.65,11.65,0,0,0,0-16.49L1735.51,683a11.67,11.67,0,0,0-16.49,0"/></g></g></svg>