<svg width="87" height="87" viewBox="0 0 87 87" fill="none" xmlns="http://www.w3.org/2000/svg">
<path d="M4.74656 86.6362C3.42037 86.6339 2.15608 86.0751 1.2622 85.095C0.351869 84.1234 -0.100483 82.8091 0.0187987 81.483L1.1771 68.7464L54.6859 15.2567L71.408 31.974L17.9134 85.459L5.17678 86.6173C5.03022 86.6315 4.88366 86.6362 4.74656 86.6362ZM74.7458 28.6315L58.0284 11.9142L68.056 1.8866C68.9429 0.998825 70.1461 0.5 71.4009 0.5C72.6556 0.5 73.8588 0.998825 74.7458 1.8866L84.7733 11.9142C85.6612 12.801 86.16 14.0043 86.16 15.2591C86.16 16.5139 85.6612 17.7172 84.7733 18.604L74.7505 28.6268L74.7458 28.6315Z" fill="black"/>
</svg>
