<svg width="87" height="111" viewBox="0 0 87 111" fill="none" xmlns="http://www.w3.org/2000/svg">
<path d="M43.0799 110.8C35.3064 104.169 28.1016 96.9004 21.54 89.069C11.6931 77.3082 5.45238e-06 59.7932 5.45238e-06 43.1027C-0.00873361 25.6711 10.4884 9.95209 26.593 3.28093C42.6977 -3.3903 61.2356 0.301272 73.5558 12.633C81.6579 20.6988 86.1961 31.6705 86.1598 43.1027C86.1598 59.7932 74.4667 77.3082 64.6198 89.069C58.0582 96.9004 50.8534 104.169 43.0799 110.8ZM43.0799 24.6399C36.4838 24.6399 30.3887 28.1589 27.0907 33.8713C23.7926 39.5837 23.7926 46.6218 27.0907 52.3342C30.3887 58.0466 36.4838 61.5656 43.0799 61.5656C53.2769 61.5656 61.5427 53.2992 61.5427 43.1027C61.5427 32.906 53.2769 24.6399 43.0799 24.6399Z" fill="black"/>
</svg>
