<svg width="87" height="97" viewBox="0 0 87 97" fill="none" xmlns="http://www.w3.org/2000/svg">
<path d="M67.0133 96.2333H19.1467C13.8595 96.2333 9.57333 91.9473 9.57333 86.66V24.4333H0V14.86H19.1467V10.0733C19.1467 4.78612 23.4328 0.5 28.72 0.5H57.44C62.7274 0.5 67.0133 4.78612 67.0133 10.0733V14.86H86.16V24.4333H76.5867V86.66C76.5867 91.9473 72.3007 96.2333 67.0133 96.2333ZM19.1467 24.4333V86.66H67.0133V24.4333H19.1467ZM28.72 10.0733V14.86H57.44V10.0733H28.72ZM57.44 77.0867H47.8667V34.0067H57.44V77.0867ZM38.2933 77.0867H28.72V34.0067H38.2933V77.0867Z" fill="black"/>
</svg>
